<?xml version="1.0"?><svg version="1.2" baseProfile="tiny-ps" viewBox="0 0 59 59" xmlns="http://www.w3.org/2000/svg" xmlns:xlink="http://www.w3.org/1999/xlink"><title>OpSec Security / Cyber Security Solution X</title><g><g fill="#fcfdfe" transform="matrix(.1 0 0 -.1 0 59)"><path d="M0 295V0h590v590H0V295z"/></g><g fill="#ccd4e5" transform="matrix(.1 0 0 -.1 0 59)"><path d="M0 579v-10l10 6c5 3 10 8 10 11 0 2-4 4-10 4-5 0-10-5-10-11zm45-25c-8-44-1-53 23-31s44 21 90-2l37-19 57-7 56-7 54 16 53 15 50 33 50 33-48 3-47 3-17-17c-41-40-113-54-184-34l-36 10-18 20-18 20H52l-7-36zm7-170-22-15v-59l23-14c12-8 37-17 55-21l32-7v-38l-26-6-25-7-25 12-25 11-10-6-10-6 11-13c6-7 26-16 44-19l34-6 25 9 26 10 11 21 11 21-15 24-16 24-35 7c-19 3-39 12-46 20l-11 14 13 16 13 16 25-5c14-2 34-8 44-12l17-7v32l-26 10c-36 14-66 12-92-6zm163 7c-3-6-5-51-4-100l1-89 53-4c61-4 85 0 85 13v9H250v60h90v30h-90v60h102l-4 13-5 12-60 3-61 3-7-10zm200-14-27-23-5-44-4-45 20-32 20-32 33-6 33-6 28 10 27 11v32l-17-7c-10-4-28-10-41-12l-22-5-16 13c-9 7-20 24-25 38l-10 24 11 33 12 34 25 6 24 7 25-12c32-14 34-14 34 4v14l-19 11c-11 5-33 10-50 10h-30l-26-23zm168-62v-80l4 43c2 23 2 59 0 80l-4 37v-80zM0 60V0h590v37L473 49c-65 7-194 26-286 42-93 16-173 29-178 29H0V60z"/></g><g fill="#97a0b5" transform="matrix(.1 0 0 -.1 0 59)"><path d="M57 583c-3-5-8-23-12-40l-7-33h7c4 0 15 10 25 23l18 22 34-14c18-7 49-19 68-27l35-13 57-1h57l53 20c29 11 67 31 83 45l30 24-42 1h-42l-6-10c-4-6-24-19-45-30l-39-20H228l-35 17c-19 9-37 22-40 30l-5 13h-43c-24 0-46-3-48-7zm3-196-25-12-3-32-3-32 28-14c15-8 41-17 56-21l28-7-3-22-3-22-32-3-32-3-21 11-20 11v-15c0-18 22-26 69-26h37l18 13 18 13-4 29-3 30-53 19-53 19 3 21 3 21 33 3 33 3 13-10 13-11 6 7c13 13 7 21-24 32-40 14-48 14-79-2zm374-1-32-14-12-37-12-36 7-27c3-15 16-37 27-49l21-23h38c47 0 69 8 69 26 0 16-16 19-25 4l-6-10h-55l-20 14-19 14v89l14 16 13 17h30c16 0 38-5 49-10l19-11v29l-31 11c-39 13-37 13-75-3zm-214-91v-95h120v20H239l3 33 3 32 48 3 47 3v19H240v60h100v20H220v-95zM0 61V0h590v15c0 8-1 15-3 15-55 0-517 70-569 86l-18 5V61z"/></g><g fill="#626b83" transform="matrix(.1 0 0 -.1 0 59)"><path d="M52 558c-11-41-7-46 16-25 25 23 45 21 95-5l42-23 80 1h80l47 23c25 12 54 31 64 42l17 19h-71l-13-16c-7-8-25-22-40-30l-28-14H219l-28 14c-15 8-33 22-40 30l-13 16H61l-9-32zm-7-188-17-19 6-25 6-25 43-12c23-7 48-18 56-25l14-13-14-17-13-16-51 5-50 6 19-14 20-15h73l16 18c33 36 11 74-50 87-17 3-37 12-42 19l-11 13 6 17 6 16 17 1c23 2 23 2 61-6l35-8-14 17-13 16H63l-18-20zm175-75v-95h120v20H240v70h101l-6 10-6 10h-89v60h100v20H220v-95zm191 69-21-27v-88l25-24 24-25h67l20 15 19 14-51-6-51-5-17 23-16 23v64l18 21 17 22 20 1c11 0 32-3 48-7l27-7v10c0 14-25 22-70 22h-39l-20-26zM0 59V0h590v28l-67 6C416 45 183 80 88 100L0 117V59z"/></g><g fill="#333e5e" transform="matrix(.1 0 0 -.1 0 59)"><path d="M55 559c-4-17-4-33-1-36 3-4 6-1 6 6v12l22 8 22 8 55-25 55-25h144l55 27c30 14 60 33 67 41l12 15h-53l-32-24c-18-13-49-29-70-36l-38-12-50 7-51 7-33 29-33 29H62l-7-31zM43 364l-17-26 11-17 10-16 51-19 52-19v-37l-24-10-25-9-33 10c-43 12-47 11-24-6l20-15h62l22 16 23 16-3 21-3 21-25 13c-14 6-40 17-57 24l-33 11v38l24 11 24 11 31-10 31-11v8c0 13-27 21-66 21H60l-17-26zm177-69v-95h120v20H240v70l48 2 47 1-45 6-45 6-3 37-3 37 53 4 53 3-62 2-63 2v-95zm195 70-25-24v-92l25-24 24-25h67l20 16 19 16-18-6c-11-3-29-9-41-12l-22-5-27 21-27 21v85l14 19 13 18 34 1c19 0 43-4 54-8l20-8-19 16-20 16h-67l-24-25zM0 56V0h590v26L472 38c-98 10-241 33-439 69l-33 6V56z"/></g><g fill="#081744" transform="matrix(.1 0 0 -.1 0 59)"><path d="M65 575c-3-8-7-23-10-32l-6-17 19 17c24 22 30 22 94-8l53-25h140l43 20c24 11 55 29 69 40l26 20h-60l-19-21c-10-12-33-28-51-35l-32-14H229l-34 14-34 15-13 20-13 21H69l-4-15zM55 374l-16-17 3-26 3-26 50-16 50-16 3-21 3-22-26-12-26-12-32 12-32 11 19-14c33-25 97-13 110 20l6 17-9 16-9 16-49 16-48 15-3 18-4 18 12 14 12 15h25c13 0 34-5 46-11l22-10-19 15-20 16H71l-16-16zm169 3c-3-8-4-49-2-93l3-79 55-1 55-1-47 4-48 4v78l48 4 47 3-47 2-48 2v79l53 4 52 3-58 2-58 2-5-13zm213 6-17-5-15-28c-8-16-15-43-15-60v-32l29-29 29-29h24c13 0 33 7 44 15l19 15-27-11-27-12-26 7-26 7-15 32-16 33 9 34 9 35 27 15 26 15 31-12 30-11v8c0 15-54 23-93 13zM0 56V0h590v10c0 12-18 16-150 30-96 10-364 53-417 67l-23 5V56z"/></g></g></svg>